<?xml version="1.0" encoding="UTF-8"?>
<svg version="1.1" xmlns="http://www.w3.org/2000/svg" width="864" height="864">
<path d="M0 0 C1.27958588 0.00182281 2.55917175 0.00364563 3.87753296 0.00552368 C22.60471557 0.0504379 40.96044923 0.47615252 59.5 3.3125 C61.23080811 3.56193359 61.23080811 3.56193359 62.99658203 3.81640625 C105.89417076 10.09835823 147.24214621 23.04339936 186.5 41.3125 C187.88131104 41.94937744 187.88131104 41.94937744 189.29052734 42.59912109 C225.08451445 59.25937209 258.80700143 82.36373423 287.91796875 108.9765625 C289.33059541 110.25455152 290.74944736 111.52621969 292.19604492 112.765625 C297.70211314 117.49011002 302.87961878 122.50593706 308.00854492 127.63574219 C309.42668284 129.05169947 310.85296665 130.45948289 312.27929688 131.8671875 C317.66085669 137.23752794 322.63884935 142.75510048 327.38110352 148.6965332 C329.39376261 151.18134047 331.47981573 153.56300689 333.625 155.93359375 C337.49255856 160.24351388 341.03790148 164.73523602 344.5 169.375 C345.13518555 170.22570068 345.77037109 171.07640137 346.42480469 171.95288086 C358.54305086 188.35695664 369.72506092 205.40956391 379.5 223.3125 C379.97888672 224.18664551 380.45777344 225.06079102 380.95117188 225.96142578 C404.63571995 269.50372727 420.48926859 316.61903835 428.25 365.5625 C428.44867676 366.80322266 428.64735352 368.04394531 428.85205078 369.32226562 C432.01053302 390.1406421 432.87473534 410.77132686 432.8125 431.8125 C432.80976578 433.73187881 432.80976578 433.73187881 432.80697632 435.69003296 C432.7620621 454.41721557 432.33634748 472.77294923 429.5 491.3125 C429.25056641 493.04330811 429.25056641 493.04330811 428.99609375 494.80908203 C422.71414177 537.70667076 409.76910064 579.05464621 391.5 618.3125 C390.86312256 619.69381104 390.86312256 619.69381104 390.21337891 621.10302734 C373.55312791 656.89701445 350.44876577 690.61950143 323.8359375 719.73046875 C322.55794848 721.14309541 321.28628031 722.56194736 320.046875 724.00854492 C315.32238998 729.51461314 310.30656294 734.69211878 305.17675781 739.82104492 C303.76080053 741.23918284 302.35301711 742.66546665 300.9453125 744.09179688 C295.57497206 749.47335669 290.05739952 754.45134935 284.1159668 759.19360352 C281.63115953 761.20626261 279.24949311 763.29231573 276.87890625 765.4375 C272.56898612 769.30505856 268.07726398 772.85040148 263.4375 776.3125 C262.58679932 776.94768555 261.73609863 777.58287109 260.85961914 778.23730469 C244.45554336 790.35555086 227.40293609 801.53756092 209.5 811.3125 C208.62585449 811.79138672 207.75170898 812.27027344 206.85107422 812.76367188 C163.30877273 836.44821995 116.19346165 852.30176859 67.25 860.0625 C66.00927734 860.26117676 64.76855469 860.45985352 63.49023438 860.66455078 C42.6718579 863.82303302 22.04117314 864.68723534 1 864.625 C-0.27958588 864.62317719 -1.55917175 864.62135437 -2.87753296 864.61947632 C-21.60471557 864.5745621 -39.96044923 864.14884748 -58.5 861.3125 C-60.23080811 861.06306641 -60.23080811 861.06306641 -61.99658203 860.80859375 C-104.89417076 854.52664177 -146.24214621 841.58160064 -185.5 823.3125 C-186.88131104 822.67562256 -186.88131104 822.67562256 -188.29052734 822.02587891 C-224.08451445 805.36562791 -257.80700143 782.26126577 -286.91796875 755.6484375 C-288.33059541 754.37044848 -289.74944736 753.09878031 -291.19604492 751.859375 C-296.70211314 747.13488998 -301.87961878 742.11906294 -307.00854492 736.98925781 C-308.42668284 735.57330053 -309.85296665 734.16551711 -311.27929688 732.7578125 C-316.66085669 727.38747206 -321.63884935 721.86989952 -326.38110352 715.9284668 C-328.39376261 713.44365953 -330.47981573 711.06199311 -332.625 708.69140625 C-336.49255856 704.38148612 -340.03790148 699.88976398 -343.5 695.25 C-344.13518555 694.39929932 -344.77037109 693.54859863 -345.42480469 692.67211914 C-357.54305086 676.26804336 -368.72506092 659.21543609 -378.5 641.3125 C-378.97888672 640.43835449 -379.45777344 639.56420898 -379.95117188 638.66357422 C-403.63571995 595.12127273 -419.48926859 548.00596165 -427.25 499.0625 C-427.44867676 497.82177734 -427.64735352 496.58105469 -427.85205078 495.30273438 C-431.01053302 474.4843579 -431.87473534 453.85367314 -431.8125 432.8125 C-431.81067719 431.53291412 -431.80885437 430.25332825 -431.80697632 428.93496704 C-431.7620621 410.20778443 -431.33634748 391.85205077 -428.5 373.3125 C-428.33371094 372.15862793 -428.16742188 371.00475586 -427.99609375 369.81591797 C-421.71414177 326.91832924 -408.76910064 285.57035379 -390.5 246.3125 C-390.07541504 245.39162598 -389.65083008 244.47075195 -389.21337891 243.52197266 C-372.55312791 207.72798555 -349.44876577 174.00549857 -322.8359375 144.89453125 C-321.55794848 143.48190459 -320.28628031 142.06305264 -319.046875 140.61645508 C-314.32238998 135.11038686 -309.30656294 129.93288122 -304.17675781 124.80395508 C-302.76080053 123.38581716 -301.35301711 121.95953335 -299.9453125 120.53320312 C-294.57497206 115.15164331 -289.05739952 110.17365065 -283.1159668 105.43139648 C-280.63115953 103.41873739 -278.24949311 101.33268427 -275.87890625 99.1875 C-271.56898612 95.31994144 -267.07726398 91.77459852 -262.4375 88.3125 C-261.58679932 87.67731445 -260.73609863 87.04212891 -259.85961914 86.38769531 C-243.45554336 74.26944914 -226.40293609 63.08743908 -208.5 53.3125 C-207.62585449 52.83361328 -206.75170898 52.35472656 -205.85107422 51.86132812 C-162.30877273 28.17678005 -115.19346165 12.32323141 -66.25 4.5625 C-65.00927734 4.36382324 -63.76855469 4.16514648 -62.49023438 3.96044922 C-41.6718579 0.80196698 -21.04117314 -0.06223534 0 0 Z " fill="#FDFDFD" transform="translate(431.5,-0.3125)"/>
<path d="M0 0 C11.79583062 -0.56654851 23.79778736 2.76436424 33.1875 10.05078125 C36.4549219 12.29535804 39.7986332 12.41264472 43.67938232 12.44337463 C45.08858696 12.45805786 45.08858696 12.45805786 46.52626038 12.47303772 C47.54981125 12.47879318 48.57336212 12.48454865 49.62792969 12.49047852 C51.25277534 12.50532791 51.25277534 12.50532791 52.91044617 12.52047729 C56.49235851 12.552075 60.07428412 12.57684302 63.65625 12.6015625 C66.13918402 12.62213351 68.62211454 12.64313002 71.1050415 12.66453552 C76.97331043 12.7140978 82.8416002 12.75936709 88.70991921 12.80255789 C96.04753493 12.85682566 103.38509164 12.91775645 110.72265625 12.97851562 C123.80985645 13.08607854 136.89709575 13.1877129 149.984375 13.28515625 C150.314375 14.93515625 150.644375 16.58515625 150.984375 18.28515625 C97.524375 18.78015625 97.524375 18.78015625 42.984375 19.28515625 C44.964375 23.24515625 44.964375 23.24515625 46.984375 27.28515625 C49.41119325 36.99242924 48.55968207 46.37892052 43.984375 55.28515625 C37.50016598 66.01764015 26.89238826 72.75504849 14.984375 76.28515625 C11.625 76.4140625 11.625 76.4140625 8.984375 76.28515625 C8.984375 76.94515625 8.984375 77.60515625 8.984375 78.28515625 C9.809375 78.38828125 10.634375 78.49140625 11.484375 78.59765625 C27.90311931 81.82276674 41.30074978 91.98122569 51.51171875 104.8515625 C56.99819659 113.91807627 57.35165171 123.95765949 55.984375 134.28515625 C54.65155852 138.58651851 52.7431697 141.74955808 49.984375 145.28515625 C49.33082031 146.15527344 48.67726563 147.02539062 48.00390625 147.921875 C39.01629971 158.8739857 26.92557797 164.56224754 12.984375 166.28515625 C2.02496729 167.12956637 -9.7293755 167.64401639 -20.015625 163.28515625 C-20.99402344 162.88296875 -21.97242188 162.48078125 -22.98046875 162.06640625 C-34.97931436 156.61926322 -43.94588017 148.39285081 -48.828125 136.09765625 C-51.85517737 126.06513981 -50.65036455 115.24274352 -45.83203125 106.01953125 C-40.27804007 97.01986283 -32.62275224 90.02322861 -23.828125 84.28515625 C-23.25835938 83.91132813 -22.68859375 83.5375 -22.1015625 83.15234375 C-16.30827999 79.53990431 -10.82452312 77.95301488 -4.015625 78.28515625 C-4.015625 77.62515625 -4.015625 76.96515625 -4.015625 76.28515625 C-5.14097656 76.04732422 -5.14097656 76.04732422 -6.2890625 75.8046875 C-18.21551798 73.08593631 -28.79199898 68.57126298 -36.359375 58.49609375 C-37.390625 56.78515625 -37.390625 56.78515625 -39.015625 53.28515625 C-39.881875 51.58359375 -39.881875 51.58359375 -40.765625 49.84765625 C-43.78545735 41.2243572 -43.31802634 31.67276116 -39.47851562 23.5168457 C-39.01981079 22.53464554 -38.56110596 21.55244537 -38.08850098 20.54048157 C-37.7344519 19.79622421 -37.38040283 19.05196686 -37.015625 18.28515625 C-58.37350625 18.23839636 -79.73137903 18.20314785 -101.08930111 18.18153191 C-111.00657298 18.17122764 -120.92381302 18.15718354 -130.84106445 18.13427734 C-139.48684017 18.11431747 -148.13259282 18.10143364 -156.77839094 18.09697926 C-161.35453209 18.09437629 -165.93060726 18.08827584 -170.50672722 18.07369614 C-174.81831517 18.06007118 -179.12981026 18.05594352 -183.44141769 18.05894089 C-185.01956119 18.05839292 -186.59770794 18.05444484 -188.17583275 18.0467453 C-202.77043223 17.80033444 -202.77043223 17.80033444 -216.015625 23.28515625 C-216.675625 23.28515625 -217.335625 23.28515625 -218.015625 23.28515625 C-225.34363246 37.6288226 -230.51030892 52.78339959 -235.765625 67.97265625 C-236.89671102 71.23881787 -238.02974001 74.50422597 -239.16973877 77.76728821 C-239.8728821 79.77993122 -240.57102467 81.79433059 -241.2633667 83.81071472 C-243.69348096 90.76721544 -243.69348096 90.76721544 -245.62597656 93.87426758 C-247.33478444 96.83886312 -247.82857109 99.61453057 -248.49893188 102.94696045 C-249.30866907 106.61127112 -250.59463146 110.06269316 -251.90234375 113.57421875 C-252.19226196 114.36725906 -252.48218018 115.16029938 -252.78088379 115.97737122 C-253.7496699 118.62360839 -254.72641611 121.26683414 -255.703125 123.91015625 C-256.39745929 125.80195634 -257.09120848 127.69397125 -257.78442383 129.58618164 C-259.32390955 133.78670215 -260.86634055 137.98612769 -262.41015625 142.18505859 C-265.03228587 149.32317617 -267.6374972 156.46740233 -270.23999596 163.61269379 C-271.53241725 167.1610434 -272.82545694 170.70916768 -274.1184082 174.25732422 C-274.63457353 175.67380735 -275.15073768 177.09029091 -275.66690063 178.5067749 C-275.92102848 179.2041552 -276.17515633 179.90153549 -276.43698502 180.62004852 C-276.9462549 182.01769755 -277.455469 183.41536691 -277.96462631 184.81305695 C-279.43206888 188.84128621 -280.90061568 192.86910944 -282.37080383 196.89633751 C-283.03172217 198.70760748 -283.69148379 200.5192994 -284.35119629 202.33100891 C-287.1575572 210.0146761 -290.05581124 217.65930974 -293.015625 225.28515625 C-295.41293335 224.49150085 -295.41293335 224.49150085 -298.015625 223.28515625 C-299.31346599 220.6773251 -300.23715255 218.36534144 -301.1171875 215.6171875 C-301.39110321 214.8159697 -301.66501892 214.01475189 -301.94723511 213.18925476 C-302.86290147 210.49774237 -303.75124894 207.79795886 -304.640625 205.09765625 C-305.28901143 203.17770741 -305.93945114 201.25845094 -306.59179688 199.33984375 C-307.99975534 195.19244096 -309.39792004 191.04190534 -310.79003906 186.88916016 C-314.22473658 176.66704537 -317.76973968 166.48287505 -321.30065918 156.29370117 C-322.93345402 151.57856108 -324.56114385 146.86166497 -326.18896484 142.14480591 C-334.91321848 116.86820054 -343.74471759 91.62923778 -352.578125 66.390625 C-352.81839039 65.70414194 -353.05865578 65.01765888 -353.30620193 64.31037331 C-355.7135384 57.43228083 -358.12111074 50.55427122 -360.52991867 43.67669392 C-361.20914098 41.73735188 -361.88827596 39.79797927 -362.56738281 37.8585968 C-363.40589972 35.46407109 -364.24459611 33.06960821 -365.08349609 30.67521667 C-365.64230469 29.0793145 -365.64230469 29.0793145 -366.21240234 27.45117188 C-366.70080093 26.05686951 -366.70080093 26.05686951 -367.19906616 24.63439941 C-367.81731594 22.85569223 -368.42013931 21.07161331 -369.015625 19.28515625 C-376.935625 18.62515625 -384.855625 17.96515625 -393.015625 17.28515625 C-393.015625 15.63515625 -393.015625 13.98515625 -393.015625 12.28515625 C-364.635625 12.28515625 -336.255625 12.28515625 -307.015625 12.28515625 C-307.015625 13.93515625 -307.015625 15.58515625 -307.015625 17.28515625 C-320.380625 17.78015625 -320.380625 17.78015625 -334.015625 18.28515625 C-322.26097034 53.70070054 -322.26097034 53.70070054 -310.265625 89.03515625 C-303.94555943 107.43545004 -297.7863418 125.88858036 -291.640625 144.34765625 C-291.40036087 145.06930466 -291.16009674 145.79095306 -290.91255188 146.5344696 C-287.94433639 155.45050991 -284.97874902 164.36742246 -282.015625 173.28515625 C-279.4053221 169.97667167 -278.2223911 167.23629729 -277.078125 163.16015625 C-275.95213888 159.17289804 -274.66907846 155.34425801 -273.10546875 151.51171875 C-270.99974721 146.34139853 -269.23326938 141.09495189 -267.515625 135.78515625 C-265.53450142 129.66086097 -263.40090355 123.66585874 -260.97070312 117.70507812 C-259.48895348 113.95070633 -258.25338293 110.12540113 -257.015625 106.28515625 C-255.19818423 100.74309779 -253.3058233 95.28351131 -251.078125 89.890625 C-247.23763383 80.47294995 -243.84727667 70.97258881 -240.94140625 61.2265625 C-240.09524422 58.53812364 -239.14264358 55.95593882 -238.078125 53.34765625 C-237.39053798 51.6601917 -236.70304617 49.97268836 -236.015625 48.28515625 C-235.56574219 47.18171875 -235.11585938 46.07828125 -234.65234375 44.94140625 C-231.2314289 36.07593679 -229.59586265 28.58497091 -232.015625 19.28515625 C-232.57024414 19.2601001 -233.12486328 19.23504395 -233.69628906 19.20922852 C-236.21961343 19.09287698 -238.74260036 18.97032871 -241.265625 18.84765625 C-242.13832031 18.80833984 -243.01101563 18.76902344 -243.91015625 18.72851562 C-244.75449219 18.68662109 -245.59882813 18.64472656 -246.46875 18.6015625 C-247.63132324 18.54657593 -247.63132324 18.54657593 -248.81738281 18.49047852 C-250.9731226 18.2891261 -252.93363975 17.86786328 -255.015625 17.28515625 C-255.015625 15.63515625 -255.015625 13.98515625 -255.015625 12.28515625 C-253.89010003 12.28884342 -252.76457506 12.29253059 -251.60494328 12.2963295 C-224.21286727 12.38514514 -196.82080995 12.45086757 -169.42862034 12.49240494 C-156.18193505 12.51302623 -142.93534492 12.54113877 -129.6887207 12.58691406 C-118.14237035 12.62679482 -106.59608891 12.65259221 -95.04967159 12.66151023 C-88.93646046 12.66672281 -82.82344646 12.67896571 -76.71029854 12.70807648 C-70.95409629 12.73526489 -65.19817205 12.74359418 -59.4419117 12.73758698 C-57.33161406 12.73868566 -55.22130694 12.74661891 -53.11106491 12.76197815 C-50.22369338 12.78195943 -47.33736344 12.77706557 -44.44996643 12.76617432 C-43.62017338 12.77782568 -42.79038033 12.78947705 -41.93544203 12.80148149 C-35.86816529 12.73986854 -31.36127246 11.08683854 -26.015625 8.28515625 C-24.98695313 7.74632812 -23.95828125 7.2075 -22.8984375 6.65234375 C-21.98835938 6.15992188 -21.07828125 5.6675 -20.140625 5.16015625 C-13.41999871 1.79559492 -7.4110715 0.70078785 0 0 Z " fill="#080808" transform="translate(693.015625,282.71484375)"/>
<path d="M0 0 C11.60379869 5.82783928 20.31735652 14.52528865 25.84375 26.28515625 C26.62109375 29.31640625 26.62109375 29.31640625 26.62109375 39.31640625 C6.49109375 39.31640625 -13.63890625 39.31640625 -34.37890625 39.31640625 C-34.29640625 44.32828125 -34.21390625 49.34015625 -34.12890625 54.50390625 C-34.11311523 56.0561792 -34.09732422 57.60845215 -34.08105469 59.20776367 C-33.81260366 70.31669094 -32.04901313 80.52921809 -26.37890625 90.31640625 C-19.45868957 95.19112838 -8.36194573 94.42381779 -0.37890625 93.31640625 C8.26442932 90.66415312 15.75484222 85.64272928 20.08203125 77.6015625 C21.35225147 74.86655075 22.51629994 72.12183772 23.62109375 69.31640625 C23.99621094 68.38054687 24.37132812 67.4446875 24.7578125 66.48046875 C25.18513672 65.40925781 25.18513672 65.40925781 25.62109375 64.31640625 C26.61109375 64.31640625 27.60109375 64.31640625 28.62109375 64.31640625 C27.22250432 75.43278083 22.84445419 84.40868369 14.125 91.59375 C3.56580881 98.85834176 -6.87168046 100.03747273 -19.37890625 99.31640625 C-22.62569491 98.71179898 -25.4018037 97.73081513 -28.37890625 96.31640625 C-29.11367187 95.97609375 -29.8484375 95.63578125 -30.60546875 95.28515625 C-42.79557308 89.0853781 -50.20152948 79.98422524 -54.4765625 66.9765625 C-56.34268247 59.67699556 -56.37890625 54.20466359 -56.37890625 46.31640625 C-100.26890625 46.31640625 -144.15890625 46.31640625 -189.37890625 46.31640625 C-189.37890625 44.66640625 -189.37890625 43.01640625 -189.37890625 41.31640625 C-145.15890625 41.31640625 -100.93890625 41.31640625 -55.37890625 41.31640625 C-55.04890625 37.68640625 -54.71890625 34.05640625 -54.37890625 30.31640625 C-52.96875 26.6171875 -52.96875 26.6171875 -51.31640625 23.62890625 C-50.76855469 22.61441406 -50.22070312 21.59992188 -49.65625 20.5546875 C-49.23472656 19.81605469 -48.81320313 19.07742188 -48.37890625 18.31640625 C-47.71890625 18.31640625 -47.05890625 18.31640625 -46.37890625 18.31640625 C-45.9921875 17.20072266 -45.9921875 17.20072266 -45.59765625 16.0625 C-41.71056824 7.30409336 -32.28083084 2.10051284 -23.9609375 -1.82421875 C-16.13022992 -4.43050569 -7.47330198 -3.11297194 0 0 Z " fill="#0C0C0C" transform="translate(190.37890625,349.68359375)"/>
<path d="M0 0 C0.60070312 0.41507812 1.20140625 0.83015625 1.8203125 1.2578125 C2.46226562 1.69351562 3.10421875 2.12921875 3.765625 2.578125 C8.24067677 6.00462908 11.1462016 9.81244811 12.8203125 15.2578125 C13.37887883 21.1356549 13.28655982 26.98416419 13.2109375 32.8828125 C13.20346774 34.59773089 13.19777828 36.31265788 13.19378662 38.02758789 C13.17858806 42.51910386 13.13935696 47.0100941 13.0949707 51.50140381 C13.05389255 56.09331147 13.03574893 60.68530491 13.015625 65.27734375 C12.9728562 74.27110028 12.90255453 83.26433022 12.8203125 92.2578125 C18.7603125 92.2578125 24.7003125 92.2578125 30.8203125 92.2578125 C30.8203125 93.5778125 30.8203125 94.8978125 30.8203125 96.2578125 C12.6703125 96.2578125 -5.4796875 96.2578125 -24.1796875 96.2578125 C-24.1796875 95.2678125 -24.1796875 94.2778125 -24.1796875 93.2578125 C-18.2396875 93.2578125 -12.2996875 93.2578125 -6.1796875 93.2578125 C-6.2427442 82.98235764 -6.31827197 72.70719817 -6.41540241 62.43200779 C-6.46001898 57.66017426 -6.4992941 52.8884244 -6.52612305 48.11645508 C-6.55224323 43.50621791 -6.59270664 38.89630422 -6.64287376 34.28626823 C-6.65948375 32.53257221 -6.67103441 30.77882032 -6.67730141 29.02505684 C-6.48572246 16.27379654 -6.48572246 16.27379654 -10.1796875 4.2578125 C-13.71358196 2.95785096 -17.31609867 3.05605236 -21.0546875 3.0078125 C-22.24835938 2.98203125 -23.44203125 2.95625 -24.671875 2.9296875 C-28.49654641 3.28745186 -30.84894934 4.41279719 -34.1796875 6.2578125 C-34.8396875 6.2578125 -35.4996875 6.2578125 -36.1796875 6.2578125 C-36.1796875 6.9178125 -36.1796875 7.5778125 -36.1796875 8.2578125 C-37.71875 9.703125 -37.71875 9.703125 -39.8046875 11.3828125 C-47.37050329 17.8888775 -50.89747706 23.33711885 -52.1796875 33.2578125 C-52.48257464 37.88546791 -52.55052101 42.50404247 -52.59375 47.140625 C-52.61311615 48.43604218 -52.6324823 49.73145935 -52.6524353 51.06613159 C-52.70330225 54.47555674 -52.74316784 57.88502091 -52.78057861 61.2946167 C-52.82090681 64.78765145 -52.87186613 68.28053031 -52.921875 71.7734375 C-53.01809457 78.60145413 -53.10168299 85.42956369 -53.1796875 92.2578125 C-47.2396875 92.2578125 -41.2996875 92.2578125 -35.1796875 92.2578125 C-35.1796875 93.5778125 -35.1796875 94.8978125 -35.1796875 96.2578125 C-53.3296875 96.2578125 -71.4796875 96.2578125 -90.1796875 96.2578125 C-90.1796875 94.9378125 -90.1796875 93.6178125 -90.1796875 92.2578125 C-84.2396875 92.2578125 -78.2996875 92.2578125 -72.1796875 92.2578125 C-72.1796875 63.8778125 -72.1796875 35.4978125 -72.1796875 6.2578125 C-78.1196875 6.2578125 -84.0596875 6.2578125 -90.1796875 6.2578125 C-90.1796875 4.9378125 -90.1796875 3.6178125 -90.1796875 2.2578125 C-89.27202637 2.24322998 -88.36436523 2.22864746 -87.42919922 2.21362305 C-84.0405944 2.15233101 -80.65277061 2.07813674 -77.26464844 1.99536133 C-75.80219042 1.96224115 -74.33960855 1.93416945 -72.87695312 1.91137695 C-70.76639347 1.87759075 -68.65695564 1.8252687 -66.546875 1.76953125 C-65.27956543 1.74334717 -64.01225586 1.71716309 -62.70654297 1.69018555 C-58.59965039 1.38661058 -58.59965039 1.38661058 -53.1796875 -1.7421875 C-52.5196875 4.1978125 -51.8596875 10.1378125 -51.1796875 16.2578125 C-49.8184375 14.7109375 -48.4571875 13.1640625 -47.0546875 11.5703125 C-35.5790738 -1.06355413 -16.54377315 -9.27748847 0 0 Z " fill="#040404" transform="translate(615.1796875,349.7421875)"/>
<path d="M0 0 C3.59649557 2.93383418 6.11806805 6.04787645 8.48046875 10.0234375 C8.86847656 10.673125 9.25648438 11.3228125 9.65625 11.9921875 C14.01492539 19.98045076 14.84752887 28.29995183 14.79296875 37.2734375 C14.78885986 38.64616821 14.78885986 38.64616821 14.78466797 40.04663086 C14.65109 48.75606792 13.69227482 57.24075237 9.48046875 65.0234375 C8.82046875 65.0234375 8.16046875 65.0234375 7.48046875 65.0234375 C7.38765625 65.8896875 7.38765625 65.8896875 7.29296875 66.7734375 C6.10532717 70.0622911 4.38629682 71.1068275 1.48046875 73.0234375 C-4.53984434 75.69622068 -9.4647679 76.51880459 -16.01953125 76.4609375 C-16.82261719 76.48091797 -17.62570312 76.50089844 -18.453125 76.52148438 C-25.33547961 76.5159071 -30.37814496 74.61112621 -35.69140625 70.234375 C-43.81404386 60.78477184 -45.69848416 50.96426316 -45.70703125 38.8359375 C-45.71927734 37.94068359 -45.73152344 37.04542969 -45.74414062 36.12304688 C-45.77085016 23.79214523 -43.38791315 12.68414736 -34.51953125 3.6484375 C-33.19997534 2.42507352 -31.86806636 1.2147814 -30.51953125 0.0234375 C-29.67390625 -0.7603125 -28.82828125 -1.5440625 -27.95703125 -2.3515625 C-18.39630418 -8.72538055 -8.81015247 -6.08882188 0 0 Z " fill="#F9F9F9" transform="translate(711.51953125,367.9765625)"/>
<path d="M0 0 C8.49855287 7.0759402 15.26583852 16.12305461 18.859375 26.67578125 C19.046875 30.42578125 19.046875 30.42578125 18.859375 33.67578125 C17.859375 34.67578125 17.859375 34.67578125 15.42332458 34.79603577 C14.34188675 34.79381516 13.26044891 34.79159454 12.14624023 34.78930664 C10.9250499 34.78923111 9.70385956 34.78915558 8.44566345 34.78907776 C7.10309814 34.78397036 5.76053325 34.77875436 4.41796875 34.7734375 C3.05176342 34.77157324 1.68555743 34.77014938 0.3193512 34.76914978 C-3.28264195 34.76532519 -6.884595 34.75549542 -10.48657227 34.7444458 C-14.15966245 34.73423041 -17.83275909 34.72965189 -21.50585938 34.72460938 C-28.71746623 34.71387309 -35.92904 34.69679739 -43.140625 34.67578125 C-43.02915494 39.09289556 -42.89891993 43.50927594 -42.765625 47.92578125 C-42.7346875 49.16070312 -42.70375 50.395625 -42.671875 51.66796875 C-42.12353448 69.05141202 -42.12353448 69.05141202 -35.140625 84.67578125 C-30.20938926 89.27826794 -24.83962352 89.23042906 -18.33666992 89.14941406 C-8.65459719 88.73346175 1.0483153 85.91253218 7.859375 78.67578125 C9.52667586 76.05167706 10.66311529 73.56674221 11.859375 70.67578125 C12.519375 70.67578125 13.179375 70.67578125 13.859375 70.67578125 C13.983125 69.99515625 14.106875 69.31453125 14.234375 68.61328125 C14.95038377 65.24804005 15.88882625 61.975647 16.859375 58.67578125 C18.839375 59.17078125 18.839375 59.17078125 20.859375 59.67578125 C18.69996985 69.53517055 16.04661968 76.31191241 8.859375 83.67578125 C8.29089844 84.27132812 7.72242188 84.866875 7.13671875 85.48046875 C-1.99120079 94.15522916 -13.76173181 95.13012853 -25.6953125 94.96875 C-30.87020286 94.75592048 -34.72634161 93.32840109 -39.140625 90.67578125 C-40.80257238 89.99743538 -42.46661403 89.3237855 -44.140625 88.67578125 C-44.140625 88.01578125 -44.140625 87.35578125 -44.140625 86.67578125 C-44.676875 86.44890625 -45.213125 86.22203125 -45.765625 85.98828125 C-55.875188 80.40141749 -60.00780794 71.09130859 -63.37890625 60.4375 C-67.00724904 47.28243154 -66.68402079 32.05766493 -60.18066406 19.87792969 C-53.44107265 8.05115357 -44.8553265 -2.65903722 -31.265625 -6.69921875 C-19.51736058 -8.94035353 -9.6789039 -7.16287042 0 0 Z " fill="#0B0B0B" transform="translate(331.140625,354.32421875)"/>
<path d="M0 0 C9.77036938 6.93764075 17.67839534 16.72529136 21.375 28.25 C21.375 30.89 21.375 33.53 21.375 36.25 C0.915 36.25 -19.545 36.25 -40.625 36.25 C-41.3505068 61.51272223 -41.3505068 61.51272223 -32.625 86.25 C-27.17765801 91.20212908 -20.73811759 90.93491666 -13.703125 90.62890625 C-3.875805 89.89713336 4.41008951 86.24345521 11.375 79.25 C15.66291913 74.1002932 17.35797366 68.80754296 18.375 62.25 C20.025 61.92 21.675 61.59 23.375 61.25 C20.02516061 73.99909462 15.35376607 83.48581664 4.375 91.25 C1.12351103 92.90200468 -2.13954606 94.18449854 -5.625 95.25 C-6.2334375 95.44207031 -6.841875 95.63414062 -7.46875 95.83203125 C-16.08571341 97.50234843 -25.67883881 97.03795498 -33.625 93.25 C-34.52992188 92.82460938 -35.43484375 92.39921875 -36.3671875 91.9609375 C-48.35221137 85.88722622 -55.28714806 77.11356885 -60 64.5625 C-62.81003627 54.84980202 -63.84393688 40.90681063 -60.625 31.25 C-59.965 31.25 -59.305 31.25 -58.625 31.25 C-58.55023438 30.64414062 -58.47546875 30.03828125 -58.3984375 29.4140625 C-56.51249826 17.39582226 -49.47915098 7.65660869 -39.8125 0.5 C-27.08815947 -7.9386461 -12.95453131 -8.17031148 0 0 Z " fill="#0A0A0A" transform="translate(507.625,352.75)"/>
<path d="M0 0 C0 54.12 0 108.24 0 164 C5.94 164 11.88 164 18 164 C18 165.32 18 166.64 18 168 C-0.48 168 -18.96 168 -38 168 C-38 166.68 -38 165.36 -38 164 C-32.06 164 -26.12 164 -20 164 C-20 112.85 -20 61.7 -20 9 C-25.94 9 -31.88 9 -38 9 C-38 8.01 -38 7.02 -38 6 C-37.37544922 5.98018066 -36.75089844 5.96036133 -36.10742188 5.93994141 C-33.23790619 5.84383068 -30.36903453 5.73450513 -27.5 5.625 C-26.02660156 5.57859375 -26.02660156 5.57859375 -24.5234375 5.53125 C-16.09135666 5.19396677 -7.56336799 0 0 0 Z " fill="#0A0A0A" transform="translate(252,278)"/>
<path d="M0 0 C14.85 0 29.7 0 45 0 C49.64912761 9.29825521 46.93095027 29.74085631 44.1875 39.5 C41.4963623 47.33626304 38.22581244 51.19329804 31 55 C24.60111132 57.99522449 18.93816508 56.86118632 12.375 54.9375 C5.14664498 50.78788879 1.49128713 44.97061316 -1.19946289 37.22363281 C-2.68678089 31.23444501 -2.49346421 25.26019883 -2.375 19.125 C-2.37371094 17.83335937 -2.37242187 16.54171875 -2.37109375 15.2109375 C-2.31665999 9.38047706 -2.19995878 5.49989694 0 0 Z " fill="#FBFBFB" transform="translate(674,301)"/>
<path d="M0 0 C10.05709935 10.05709935 8.5 17.21435833 8.5 32.5 C-4.7 32.5 -17.9 32.5 -31.5 32.5 C-31.5 10.00473934 -31.5 10.00473934 -26.8515625 4.57421875 C-26.28179687 4.11660156 -25.71203125 3.65898437 -25.125 3.1875 C-24.56039063 2.71699219 -23.99578125 2.24648438 -23.4140625 1.76171875 C-16.55472498 -2.75984456 -7.48779046 -3.20905305 0 0 Z " fill="#F8F8F8" transform="translate(319.5,352.5)"/>
<path d="M0 0 C1.02867187 -0.01417969 2.05734375 -0.02835937 3.1171875 -0.04296875 C7.02041823 0.25610997 9.81956298 1.07456982 12.8203125 3.6328125 C21.27072139 13.56088852 20.125 20.10700044 20.125 34.1875 C6.925 34.1875 -6.275 34.1875 -19.875 34.1875 C-19.875 11.72083333 -19.875 11.72083333 -14.05859375 5.12890625 C-13.48238281 4.67386719 -12.90617188 4.21882813 -12.3125 3.75 C-11.73371094 3.27691406 -11.15492188 2.80382812 -10.55859375 2.31640625 C-7.13938674 0.02371292 -3.99397991 0.02490012 0 0 Z " fill="#F8F8F8" transform="translate(175.875,350.8125)"/>
<path d="M0 0 C3.81741607 2.04187371 6.44824276 4.73463186 8.6875 8.4375 C10.6875 15.4375 10.6875 15.4375 10.6875 33.4375 C-2.1825 33.4375 -15.0525 33.4375 -28.3125 33.4375 C-28.35375 30.240625 -28.395 27.04375 -28.4375 23.75 C-28.45570801 22.75137939 -28.47391602 21.75275879 -28.49267578 20.72387695 C-28.52761643 15.13055609 -28.36075601 11.01200818 -24.76171875 6.48828125 C-24.18035156 5.91464844 -23.59898437 5.34101563 -23 4.75 C-22.42636719 4.16863281 -21.85273438 3.58726562 -21.26171875 2.98828125 C-15.08681664 -1.92441642 -7.40166543 -1.25688658 0 0 Z " fill="#FAFAFA" transform="translate(496.3125,351.5625)"/>
<path d="M0 0 C1.83203125 1.2421875 1.83203125 1.2421875 5.83203125 7.2421875 C-7.03796875 7.2421875 -19.90796875 7.2421875 -33.16796875 7.2421875 C-27.2357865 -4.622177 -11.06313496 -3.5349662 0 0 Z " fill="#EFEFEF" transform="translate(710.16796875,288.7578125)"/>
<path d="M0 0 C0.33 1.32 0.66 2.64 1 4 C0.01 4.33 -0.98 4.66 -2 5 C-2 5.66 -2 6.32 -2 7 C-3.609375 8.5859375 -3.609375 8.5859375 -5.75 10.375 C-8.6243732 12.81617866 -11.38543992 15.27649992 -14 18 C-14.99 17.01 -15.98 16.02 -17 15 C-3.89320388 0 -3.89320388 0 0 0 Z " fill="#242424" transform="translate(581,351)"/>
<path d="M0 0 C0.99 0.33 1.98 0.66 3 1 C2.34 3.97 1.68 6.94 1 10 C0.34 10 -0.32 10 -1 10 C-1.33 10.99 -1.66 11.98 -2 13 C-2.66 13 -3.32 13 -4 13 C-3.71682074 11.39431334 -3.42312209 9.79047953 -3.125 8.1875 C-2.96257812 7.29417969 -2.80015625 6.40085937 -2.6328125 5.48046875 C-2 3 -2 3 0 0 Z " fill="#C2C2C2" transform="translate(448,374)"/>
<path d="M0 0 C1.32 0 2.64 0 4 0 C4 0.99 4 1.98 4 3 C3.34 3 2.68 3 2 3 C1.67 3.99 1.34 4.98 1 6 C0.34 6 -0.32 6 -1 6 C-0.67 4.02 -0.34 2.04 0 0 Z " fill="#DADADA" transform="translate(445,381)"/>
</svg>
